<?xml version="1.0" encoding="utf-8"?>
<!-- Generator: Adobe Illustrator 25.0.0, SVG Export Plug-In . SVG Version: 6.00 Build 0)  -->
<svg version="1.1" id="Layer_1" xmlns="http://www.w3.org/2000/svg" xmlns:xlink="http://www.w3.org/1999/xlink" x="100px" y="50px"
	 viewBox="0 0 1000 800" style="enable-background:new 0 0 1000 800;" xml:space="preserve">
<style type="text/css">
	.st0{display:none;fill:#FCEE21;}
	.st1{display:none;}
	.st2{display:inline;fill:#231F21;}
	.st3{display:inline;}
	.st4{display:inline;fill:#FFFFFF;}
	.st5{display:inline;fill:#FCEE21;}
</style>
<image style="display:none;overflow:visible;" width="340" height="128" xlink:href="D:\Office\Logo-Final-v001-Over-Black-340x128px.png"  transform="matrix(0.24 0 0 0.24 439 222)">
</image>
<image style="display:none;overflow:visible;" width="340" height="128" xlink:href="D:\Office\Logo-Final-v001-Over-Black-340x128px.png"  transform="matrix(2.036 1.8547 -1.8547 2.036 1109.775 -278.335)">
</image>
<path class="st0" d="M572,436.3h-99.5c-28.2,0-51,21.6-51,48.3v0c0,26.7,22.8,48.3,51,48.3H572c28.2,0,51-21.6,51-48.3v0
	C623,457.9,600.2,436.3,572,436.3z M597.5,485.3c0,16.3-13.9,29.5-31.1,29.5h-86.5c-17.2,0-31.1-13.2-31.1-29.5v0
	c0-16.3,13.9-29.5,31.1-29.5h86.5C583.6,455.8,597.5,469,597.5,485.3L597.5,485.3z"/>
<rect x="382.5" y="480.9" transform="matrix(0.4982 -0.8671 0.8671 0.4982 -203.1115 635.3983)" class="st0" width="129.7" height="24.5"/>
<g>
	<path d="M410.9,353.9c2.3-6.4,6.5-13.2,12.4-19.3c5.9-6.1,12.5-10.6,18.8-13.2l0.1-0.1L431.5,288l-5.6,15.2
		c2.2-0.6,4.7-0.1,6.5,1.6c2.7,2.6,2.8,6.9,0.2,9.6c-2.6,2.7-6.9,2.8-9.6,0.2c-1.8-1.7-2.4-4.1-1.9-6.4l0,0l-11.7-0.9l1.4,11.6
		c2.2-0.6,4.7-0.1,6.5,1.6c2.7,2.6,2.8,6.9,0.2,9.6c-2.6,2.7-6.9,2.8-9.6,0.2c-1.8-1.7-2.4-4.2-1.9-6.5l-11.4-0.8l1.3,11.2
		c2.3-0.7,4.9-0.2,6.8,1.6c2.7,2.6,2.8,6.9,0.2,9.6c-2.6,2.7-6.9,2.8-9.6,0.2c-1.8-1.7-2.4-4.1-1.9-6.4l0,0l-15.5,6.6l0,0
		L410.9,353.9L410.9,353.9z"/>
	<g>
		<path d="M591.8,418.8c13.9-9.1,23.2-24.8,23.2-42.7v0c0-24.1-16.7-44.3-39.2-49.6l-11.4,19.9c14.3,2.8,25.1,15.4,25.1,30.6v0
			c0,17.2-13.9,31.1-31.1,31.1H529l-4.2,7.4L514,433.8h53.9c17.2,0,30.7,14.4,30.7,30.6v0c0,16.3-13.9,29.5-31.1,29.5h-86.5
			c-0.4,0-0.8,0-1.2,0l-10.3,17.9c1.4,0.1,2.7,0.2,4.1,0.2H573c28.2,0,51-21.6,51-48.3v0C624,443.3,610.7,425.9,591.8,418.8z"/>
		<path d="M471.8,408.1c-17.2,0-31.1-13.9-31.1-31.1v0c0-17.2,13.9-31.1,31.1-31.1h64.6l11.9-20.6h-83.9c-28.2,0-51,22.8-51,51v0
			c0,26.8,20.6,48.7,46.8,50.8l-48.8,85H441l59.7-103.9H471.8z"/>
	</g>
</g>
<g class="st1">
	<path class="st3" d="M870.4,443c-5.4-3.9-11.7-6.5-18-9.9c1-0.7,2.2-1.5,3.4-2.3c22.4-13.4,30.8-39.1,21.7-63.3
		c-6.1-16.2-18.4-25.8-34.3-31.2c-3.3-1.1-5.8,0-7.6,3c-2.7,4.5-5.2,9.2-8.1,13.6c-2.5,3.8-1.8,6.1,2.6,7.3c1.1,0.3,2.1,1,3.1,1.5
		c13,5.7,18.2,19.3,16.7,33.1c-1.4,13.2-10.9,23.3-24.2,25.1c-9.7,1.3-19.4,1.9-29.3,2H780l-5.8,25.7h39c4.9,0.1,9.8,0.3,14.7,0.5
		c13.1,0.7,28.6,7.2,31.1,27c1.1,9.1-0.2,17.8-7.2,24.8c-7.5,7.6-17.2,9.8-27.2,9.9c-27.2,0.4-54.3,0.2-81.5,0.1c-4,0-7,1-9.1,4.7
		c-3,5.3-6.4,10.4-9.4,15.6c-1.9,3.3-0.4,5.6,3.6,5.7c4.2,0.1,8.3,0.1,12.5,0c33.1-1,66.3,2.9,99.2-2.2c23.7-3.6,44.7-16.4,49-42.7
		C892,472,887,454.9,870.4,443z"/>
	<path class="st3" d="M805.4,333.2c-29,0.3-57.9,0-86.8,1.1c-24.9,0.9-45.6,16.8-51.1,42.4c-6,27.7,9.4,56.2,36.6,64.8
		c3.2,1,6.4,2.1,10,3.3l-39.3,68.4c-3.3,5.6-6.5,11.2-9.8,16.8c-0.3,0.5-0.5,1-0.7,1.5l-2.7,4.8h33.2L760.3,422c0,0-28.1-1.1-37.8-2
		c-13.1-1.2-22.1-9.1-25-21.7c-3.7-16,2.4-32.5,19.7-36.6c8-1.9,16.3-2.8,24.5-3c16.1-0.3,32.3,0.1,48.5,0.4c4,0.1,6.7-1.4,8.6-4.7
		c3.2-5.4,6.5-10.7,9.6-16.2C810.2,335.2,809,333.1,805.4,333.2z"/>
	<rect x="736" y="333.2" class="st3" width="76.1" height="25.6"/>
	
		<rect x="382.9" y="481.6" transform="matrix(0.4982 -0.8671 0.8671 0.4982 -203.9038 635.4006)" class="st5" width="128.2" height="24.5"/>
	
		<rect x="278.7" y="454.3" transform="matrix(1 -2.321559e-03 2.321559e-03 1 -1.0822 0.7971)" class="st5" width="128.2" height="24.5"/>
	<g class="st3">
		<path d="M439.7,397.8L439.7,397.8c0-17.2,13.9-31.1,31.1-31.1h64.6l11.9-20.6h-83.9c-28.2,0-51,22.8-51,51v0
			c0,26.8,20.6,48.7,46.8,50.8l-54.9,95.5l21.3,12.2L487.5,448h1.2l11-19.1h-28.8C453.7,428.9,439.7,415,439.7,397.8z"/>
		<path d="M574.8,347.4l-11.4,19.9c14.3,2.8,25.1,15.4,25.1,30.6v0c0,17.2-13.9,31.1-31.1,31.1H528L517,448h46c28.2,0,51-22.8,51-51
			v0C614,372.9,597.3,352.7,574.8,347.4z"/>
	</g>
	<g class="st3">
		<path d="M572,436.3h-48.3l-11.2,19.5h53.9c17.2,0,31.1,13.2,31.1,29.5v0c0,16.3-13.9,29.5-31.1,29.5h-86.5c-0.4,0-0.8,0-1.2,0
			l-10.3,17.9c1.4,0.1,2.7,0.2,4.1,0.2H572c28.2,0,51-21.6,51-48.3v0C623,457.9,600.2,436.3,572,436.3z"/>
	</g>
	<g class="st3">
		<path d="M310.9,213.9h-48.3l-10.7,18.4h53.9c17.2,0,30.7,14.4,30.7,30.6v0c0,16.3-13.9,29.5-31.1,29.5h-86.5c-0.4,0-0.8,0-1.2,0
			l-10.3,17.9c1.4,0.1,2.7,0.2,4.1,0.2h99.5c28.2,0,51-21.6,51-48.3v0C361.9,235.5,339,213.9,310.9,213.9z"/>
	</g>
	<path class="st3" d="M202.3,123.6c-28.2,0-51,22.8-51,51v0c0,26.8,20.6,48.7,46.8,50.8l-48.8,85h29.5l59.7-103.9h-28.8
		c-17.2,0-31.1-13.9-31.1-31.1v0c0-17.2,13.9-31.1,31.1-31.1h64.6l11.9-20.6H202.3z"/>
	<path class="st3" d="M313.6,125l-11.4,19.9c14.3,2.8,25.1,15.4,25.1,30.6v0c0,17.2-13.9,31.1-31.1,31.1h-29.4l-11,19.1h46
		c28.2,0,51-22.8,51-51v0C352.8,150.5,336.1,130.3,313.6,125z"/>
	<rect x="458.4" y="116.9" class="st5" width="7.6" height="25.8"/>
	<rect x="455.3" y="139.5" class="st3" width="48.6" height="1"/>
</g>
</svg>
